# xmcd CD database file
# Copyright (C) 1996 Ti Kan
#
# Track frame offsets:
# 	180
# 	13661
# 	22724
# 	41019
# 	59251
# 	74983
# 	90690
# 	105175
# 	117607
# 	135533
# 	151942
# 	162881
#
# Disc length: 2412 seconds
#
# Revision: 1
# Processed by: cddbd v1.4b41PL1 Copyright (c) Steve Scherf et al.
# Submitted via: DiscPlay 3.4.1
#
DISCID=97096a0c
DTITLE=George Canyon - Ironwolf
DYEAR=1900
DGENRE=
TTITLE0=One of These Days
TTITLE1=Workin' For A Livin'
TTITLE2=My Love's Unchanged
TTITLE3=Angelyna
TTITLE4=Tryin' To Forget
TTITLE5=Ironwolf
TTITLE6=Moon Chasin The Sun
TTITLE7=How Many
TTITLE8=Jesus,It's Only Me Johnny
TTITLE9=Jesse
TTITLE10=If I Knew Now
TTITLE11=Grandpa's Song
EXTD=
EXTT0=
EXTT1=
EXTT2=
EXTT3=
EXTT4=
EXTT5=
EXTT6=
EXTT7=
EXTT8=
EXTT9=
EXTT10=
EXTT11=
PLAYORDER=
